<?xml version="1.0" encoding="utf-8" ?><svg xmlns="http://www.w3.org/2000/svg" xmlns:xlink="http://www.w3.org/1999/xlink" width="512" height="512" viewBox="0 0 512 512"><path fill="white" transform="scale(0.5 0.5)" d="M0 0L1024 0L1024 1024L0 1024L0 0Z"/><path fill="#00427C" transform="scale(0.5 0.5)" d="M371.829 262.599C374.578 251.894 376.306 242.047 384.788 233.832C406.386 212.915 443.975 213.474 471.906 213.096C461.659 217.301 459.331 220.678 452.533 228.944L453.106 230.203C461.043 225.75 476.759 225.909 485.493 228.55C507.155 235.1 518.635 248.447 534.024 262.283C520.383 260.525 514.137 260.575 500.368 262.215L498.502 262.747L498.391 263.454C513.617 270.526 525.312 277.033 531.836 293.974C534.156 299.998 537.821 316.402 536.392 322.67C535.514 326.519 533.447 331.787 532.446 335.745C526.625 326.253 522.381 323.92 512.773 318.688C520.986 329.653 524.895 338.656 527.67 352.238C529.627 361.815 530.527 369.939 535.621 378.636C537.658 383.369 541.252 387.428 544.215 391.592C563.362 418.493 597.439 428.889 626.805 440.739C664.429 455.921 695.342 467.362 704.273 511.41C704.584 513.512 705.16 516.698 705.303 518.729C708.91 550.932 708.016 558.3 740.449 571.954C745.92 598.371 749.673 625.115 751.684 652.017L670.321 651.999C675.503 641.264 680.877 630.776 691.321 624.279C697.779 620.263 703.904 620.891 711.046 620.996C710.203 615.736 709.277 610.048 707.757 604.954C703.374 590.259 683.245 590.88 669.954 587.534C661.575 585.409 653.45 582.386 645.719 578.518C614.519 563.05 593.704 537.539 582.611 504.864C582.563 504.676 581.747 503.152 581.6 502.869C581.154 517.865 581.395 522.309 585.62 536.636C559.006 546.738 532.528 547.445 504.624 543.713C514.026 529.208 521.826 511.889 524.283 494.719C525.061 489.282 525.246 481.748 525.599 475.99L523.883 477.793C523.797 484.665 515.963 503.364 512.65 510.001C506.826 521.669 498.733 533.293 492.54 544.973C473.816 580.283 453.814 616.042 436.52 651.996L375.964 651.994C379.848 627.406 388.224 613.807 414.874 614.375C425.65 589.799 434.424 564.949 442.514 539.365C443.683 535.668 444.995 531.889 446.027 528.159C443.909 519.513 441.35 512.36 438.285 504.039C437.15 500.955 434.484 494.107 433.74 491.133C433.523 490.611 432.78 489.551 432.438 489.024C432.719 496.048 432.46 502.159 431.898 509.169C430.122 537.678 423.407 532.438 410.702 553.201C390.829 585.676 370.303 618.786 351.748 652.054C334.542 652.001 311.453 652.68 294.627 651.914L284.271 652.007C285.21 642.293 289.058 631.938 295.912 624.797C304.755 615.583 318.681 615.115 330.668 615.016C342.222 593.708 371.264 520.816 372.306 497.854C382.704 514.214 393.543 519.158 410.92 525.247L410.531 523.656C401.541 519.856 384.466 501.721 379.565 492.367C369.381 472.929 369.689 455.52 375.657 435.076C373.634 436.86 372.155 440.127 370.844 442.554C364.615 454.084 362.628 464.078 363.071 477.012C361.565 475.161 361.211 474.775 360.154 472.682C359.85 472.278 359.494 471.83 359.267 471.386C340.272 434.299 355.373 395.023 390.362 374.718C390.291 374.326 390.378 374.584 389.774 374.153C388.967 374.313 388.2 374.448 387.415 374.687C369.37 380.195 357.915 383.259 348.469 400.256C332.901 391.311 325.309 376.363 331.265 358.729C338.936 361.134 346.739 363.269 354.836 362.899L355.164 362.459L353.876 361.794C338.421 356.256 319.862 354.937 325.061 334.338C319.758 330.485 314.444 324.495 314.936 317.428C315.361 311.336 321.418 308.27 325.798 305.06C334.112 298.969 343.341 293.631 351.168 286.937C352.864 285.478 354.672 279.19 356.156 276.948C360.182 270.867 366.439 267.36 371.829 262.599Z"/><path fill="#022C58" transform="scale(0.5 0.5)" d="M582.611 504.864L583.226 504.105C585.04 507.322 586.292 512.931 587.148 514.312C590.031 518.964 591.852 524.62 594.439 528.938C611.559 557.5 635.6 575.96 667.416 585.626C681.512 589.909 699.398 587.988 707.416 600.959C711.45 607.485 710.579 615.88 712.096 620.551C710.058 623.298 701.315 620.881 696.441 623.135C683.871 628.95 678.132 638.943 672.187 650.714C688.743 651.657 706.115 651.168 722.745 651.274C728.533 651.311 745.121 651.555 750.076 650.629C750.383 647.012 749.633 642.636 749.113 637.671C746.884 616.358 744.349 594.33 739.03 573.513C738.793 572.589 734.8 570.847 733.883 570.403C723.15 565.84 711.549 558.196 708.092 546.388C706.585 541.239 702.79 522.427 705.303 518.729C708.91 550.932 708.016 558.3 740.449 571.954C745.92 598.371 749.673 625.115 751.684 652.017L670.321 651.999C675.503 641.264 680.877 630.776 691.321 624.279C697.779 620.263 703.904 620.891 711.046 620.996C710.203 615.736 709.277 610.048 707.757 604.954C703.374 590.259 683.245 590.88 669.954 587.534C661.575 585.409 653.45 582.386 645.719 578.518C614.519 563.05 593.704 537.539 582.611 504.864Z"/><path fill="#021B38" transform="scale(0.5 0.5)" d="M435.793 651.25C438.661 643.732 448.739 625.111 452.902 617.071C465.899 592.143 479.129 567.337 492.591 542.657C498.499 532.019 505.76 521.246 511.21 510.609C513.361 506.501 515.216 502.246 516.761 497.874C517.95 494.553 522.783 479.315 523.883 477.793C523.797 484.665 515.963 503.364 512.65 510.001C506.826 521.669 498.733 533.293 492.54 544.973C473.816 580.283 453.814 616.042 436.52 651.996L375.964 651.994C379.848 627.406 388.224 613.807 414.874 614.375C425.65 589.799 434.424 564.949 442.514 539.365C443.683 535.668 444.995 531.889 446.027 528.159C443.909 519.513 441.35 512.36 438.285 504.039C437.15 500.955 434.484 494.107 433.74 491.133L434.365 491C437.343 495.811 445.772 522.293 447.314 528.38C438.412 556.643 428.014 589.209 415.331 615.655C387.111 616.426 382.899 625.625 377.194 651.268C387.827 650.94 398.407 651.626 409 651.631C417.849 651.636 426.924 651.394 435.793 651.25Z"/><path fill="#021B38" transform="scale(0.5 0.5)" d="M371.829 262.599C374.578 251.894 376.306 242.047 384.788 233.832C406.386 212.915 443.975 213.474 471.906 213.096C461.659 217.301 459.331 220.678 452.533 228.944C452.8 223.6 461.868 217.081 465.98 214.34L464.983 214.442C457.265 215.197 450.066 214.718 442.416 215.184C422.215 216.417 397.796 220.84 383.748 236.736C375.522 246.044 376.318 254.027 372.627 263.686C369.185 266.267 360.696 272.405 358.378 275.906C353.57 283.963 354.636 286.324 346.539 292.048C337.37 298.53 326.049 305.618 317.809 312.782C311.124 318.594 321.589 329.859 325.056 333.738C327.16 336.091 322.831 346.892 328.137 349.983C332.191 354.135 352.439 358.309 353.876 361.794C338.421 356.256 319.862 354.937 325.061 334.338C319.758 330.485 314.444 324.495 314.936 317.428C315.361 311.336 321.418 308.27 325.798 305.06C334.112 298.969 343.341 293.631 351.168 286.937C352.864 285.478 354.672 279.19 356.156 276.948C360.182 270.867 366.439 267.36 371.829 262.599Z"/><path fill="#000610" transform="scale(0.5 0.5)" d="M330.668 615.016C342.222 593.708 371.264 520.816 372.306 497.854C382.704 514.214 393.543 519.158 410.92 525.247C408.544 526.245 403.707 524.284 401.198 523.292C390.403 519.021 379.666 510.688 372.959 501.154C372.335 522.378 341.859 596.512 331.45 615.949C323.02 616.443 313.579 616.596 305.655 619.629C293.1 624.436 286.993 638.622 285.609 651.098C288.613 651.394 291.619 651.666 294.627 651.914L284.271 652.007C285.21 642.293 289.058 631.938 295.912 624.797C304.755 615.583 318.681 615.115 330.668 615.016Z"/><path fill="#022C58" transform="scale(0.5 0.5)" d="M525.599 475.99C525.897 476.425 526.196 476.861 526.494 477.296C527.495 502.446 519.454 521.079 506.82 542.787C531.075 545.58 548.183 546.191 572.193 539.36C575.522 538.413 581.132 537.179 583.932 535.755C582.443 525.475 577.881 515.148 580.323 502.92L580.937 502.379L581.6 502.869C581.154 517.865 581.395 522.309 585.62 536.636C559.006 546.738 532.528 547.445 504.624 543.713C514.026 529.208 521.826 511.889 524.283 494.719C525.061 489.282 525.246 481.748 525.599 475.99Z"/><path fill="#022C58" transform="scale(0.5 0.5)" d="M390.362 374.718C390.227 375.128 390.091 375.538 389.956 375.948C383.341 381.166 370.12 391.759 365.54 397.907C349.494 419.448 348.709 448.173 360.615 471.715C360.461 472.038 360.308 472.36 360.154 472.682C359.85 472.278 359.494 471.83 359.267 471.386C340.272 434.299 355.373 395.023 390.362 374.718Z"/><path fill="#021B38" transform="scale(0.5 0.5)" d="M453.106 230.203C461.043 225.75 476.759 225.909 485.493 228.55C507.155 235.1 518.635 248.447 534.024 262.283C520.383 260.525 514.137 260.575 500.368 262.215L499.599 261.774C504.375 259.053 525.038 259.85 530.849 260.735C514.182 244.387 494.226 227.206 469.433 227.893C465.35 228.006 455.279 230.9 453.106 230.203Z"/><path fill="#021B38" transform="scale(0.5 0.5)" d="M375.657 435.076C376.53 437.286 374.191 447.169 373.688 450.363C369.49 477.019 381.095 499.753 401.829 515.985C403.391 517.208 410.164 522.251 410.531 523.656C401.541 519.856 384.466 501.721 379.565 492.367C369.381 472.929 369.689 455.52 375.657 435.076Z"/><path fill="#022C58" transform="scale(0.5 0.5)" d="M431.898 509.169L431.234 508.927C430.257 506.733 431.085 493.955 431.157 491.04C431.193 489.569 431.4 489.805 432.438 489.024C432.719 496.048 432.46 502.159 431.898 509.169Z"/><path fill="white" transform="scale(0.5 0.5)" d="M510.669 382.735C511.155 387.747 511.409 393.632 511.534 398.687C514.203 407.579 508.996 418.92 505.579 427C501.874 435.76 479.666 458.949 470.384 458.714L469.756 458.11C471.063 455.885 480.637 445.152 482.97 442.491C499.202 423.974 506.583 407.121 510.669 382.735Z"/><path fill="#022C58" transform="scale(0.5 0.5)" d="M511.534 398.687C514.203 407.579 508.996 418.92 505.579 427C501.874 435.76 479.666 458.949 470.384 458.714C476.449 454.667 480.49 453.051 486.424 447.898C504.078 432.567 509.445 421.114 511.534 398.687Z"/><path fill="white" transform="scale(0.5 0.5)" d="M376.333 287.109C386.242 286.28 393.092 288.651 402.163 292.459C396.838 294.261 391.38 295.588 385.937 297.001C378.754 298.775 371.485 300.183 364.16 301.221C370.229 294.347 368.262 292.165 376.333 287.109Z"/><path fill="#FDBB3C" transform="scale(0.5 0.5)" d="M470.524 88.211C472.535 88.0757 474.55 88.002 476.566 87.9899C489.72 87.8001 506.599 88.0657 519.79 89.5932C584.971 97.2957 645.78 126.319 692.763 172.151C673.137 187.778 655.187 205.399 639.199 224.732C636.744 222.801 634.33 220.725 631.953 218.696C612.048 201.706 590.308 186.737 566.42 175.9C520.252 154.873 467.559 153.341 420.247 171.65C307.848 214.159 253.737 340.315 296.004 451.665C307.877 483.355 325.881 509.192 350.414 532.286C340.929 553.04 331.662 578.026 323.068 599.571C316.919 600.417 310.312 600.93 304.122 601.334C303.573 600.922 303.077 600.508 302.552 600.069C242.869 550.106 203.085 475.837 198.152 397.352C193.158 320.154 219.089 244.143 270.223 186.094C284.874 169.564 301.262 154.659 319.103 141.637C367.661 105.616 410.947 91.9376 470.524 88.211Z"/><path fill="#FDBB3C" transform="scale(0.5 0.5)" d="M530.432 208.967C563.597 213.355 583.532 229.215 606.536 252.604C612.713 258.883 617.704 266.014 623.433 272.215C659.334 281.254 649.382 289.305 668.256 315.364C680.202 331.859 708.808 353.597 702.866 378.04C701.688 382.693 698.674 386.67 694.512 389.062C688.461 392.561 679.937 392.14 673.383 390.233C672.697 390.032 672.014 389.819 671.334 389.596C667.298 400.616 670.441 405.127 680.054 411.05C664.882 411.665 655.774 406.05 654.443 390.131C653.415 396.536 652.338 401.48 652.553 408.018C644.268 399.153 642.458 388.109 642.853 376.254C642.908 374.791 642.99 373.328 643.1 371.867C632.598 366.441 620.942 361.53 609.194 359.921C603.824 371.821 604.072 380.27 608.444 392.507C613.941 407.89 628.38 418.918 643.109 424.85C666.202 434.152 688.113 440.689 703.551 462.106C707.426 467.482 709.373 472.139 712.772 477.638C734.464 484.069 758.854 469.321 765.005 447.742C769.042 433.815 767.197 418.842 759.9 406.312C745.468 381.076 722.006 370.843 715.005 338.162C707.219 301.814 738.832 265.401 776.532 274.038C795.921 278.48 798.062 299.359 822.947 302.023C818.558 308.293 814.482 312.902 806.491 314.075C797.694 315.366 793.108 312.617 787.953 306.324C791.114 316.274 794.224 318.083 802.917 323.755C783.729 326.656 774.627 317.187 757.186 310.299C730.428 334.602 771.713 364.213 786.028 385.505C792.778 395.601 797.704 406.803 800.582 418.601C803.609 430.95 804.001 443.798 801.732 456.309C793.16 501.475 747.781 531.763 704.273 511.41C695.342 467.362 664.429 455.921 626.805 440.739C597.439 428.889 563.362 418.493 544.215 391.592C541.252 387.428 537.658 383.369 535.621 378.636C536.825 344.757 543.27 314.497 574.128 295.94C562.179 292.424 556.009 290.212 544.572 284.569C564.891 274.798 569.015 277.344 589.183 278.088C577.185 253.459 555.089 221.813 530.432 208.967Z"/><path fill="white" transform="scale(0.5 0.5)" d="M620.932 310.097C626.85 309.784 631.885 311.081 637.491 312.869C642.667 314.519 651.151 319.861 651.215 325.858C643.055 326.419 623.734 318.465 620.932 310.097Z"/><path fill="#00427C" transform="scale(0.5 0.5)" d="M513.939 716.474L535.532 716.467L535.51 817.054C531.523 817.038 520.482 817.261 517.052 816.86C517.224 795.44 516.141 766.705 517.491 746.002C514.595 749.895 509.077 760.529 506.491 765.205L486.231 802.041L478.893 802.043C475.504 795.861 449.228 747.01 447.43 746.176C447.974 769.442 447.524 793.68 447.587 817.038C442.417 817.023 435.009 817.225 430.017 816.941C428.71 813.721 429.479 729.751 429.485 719.645C429.561 718.207 429.326 717.583 430.032 716.636C436.119 716.173 445.174 716.454 451.508 716.482C455.323 723.641 481.105 769.561 481.815 773.482L483.276 774.163C483.906 769.862 510.352 723.046 513.939 716.474Z"/><path fill="#021B38" transform="scale(0.5 0.5)" d="M513.939 716.474L535.532 716.467L535.51 817.054C531.523 817.038 520.482 817.261 517.052 816.86C518.762 816.394 522.589 816.199 524.51 816.044L534.239 816.041C534.251 783.962 534.834 749.707 533.976 717.738C527.81 718.154 520.751 718.038 514.484 718.065C510.805 724.84 485.227 773.167 483.276 774.163C483.906 769.862 510.352 723.046 513.939 716.474Z"/><path fill="#022C58" transform="scale(0.5 0.5)" d="M517.491 746.002L518.444 745.692C519.979 747.933 518.199 804.107 519.007 812.146C518.947 814.372 518.549 814.461 519.573 815.861L524.51 816.044C522.589 816.199 518.762 816.394 517.052 816.86C517.224 795.44 516.141 766.705 517.491 746.002Z"/><path fill="#021B38" transform="scale(0.5 0.5)" d="M429.485 719.645C429.561 718.207 429.326 717.583 430.032 716.636C436.119 716.173 445.174 716.454 451.508 716.482C455.323 723.641 481.105 769.561 481.815 773.482L481.259 773.612C479.346 771.488 477.031 766.12 475.09 762.809C466.679 748.429 459.771 732.592 450.688 718.74C449.87 717.493 433.968 717.882 431.605 718.024C430.426 719.235 430.761 719.437 430.415 721.503L430.288 721.512L430.327 720.771L429.646 720.459L429.485 719.645Z"/><path fill="#021B38" transform="scale(0.5 0.5)" d="M446.395 816.337C446.241 808.907 445.805 747.756 446.724 745.848L447.43 746.176C447.974 769.442 447.524 793.68 447.587 817.038C442.417 817.023 435.009 817.225 430.017 816.941L430.635 816.386C435.67 815.91 441.38 815.644 446.395 816.337Z"/><path fill="#0A4F94" transform="scale(0.5 0.5)" d="M519.007 812.146C519.745 806.052 519.33 799.631 519.484 793.496C519.833 779.591 518.837 765.234 519.598 751.364C520.208 753.573 520.337 813.655 519.573 815.861C518.549 814.461 518.947 814.372 519.007 812.146Z"/><path fill="#00427C" transform="scale(0.5 0.5)" d="M653.001 716.483L684.923 716.451C694.382 716.443 704.421 715.552 713.031 720.093C720.116 723.87 725.398 730.322 727.702 738.014C732.89 754.916 726.388 773.299 708.283 778.719L707.913 779.222C715.813 790.872 723.573 805.119 731.279 817.36C724.499 817.132 717.735 817.338 710.952 817.47C704.005 805.338 696.459 793.035 689.254 781.024L670.97 781L671.046 817.314C665.794 816.796 658.33 817.065 652.947 817.156C653.403 783.906 653.008 749.8 653.001 716.483Z"/><path fill="#021B38" transform="scale(0.5 0.5)" d="M653.001 716.483L684.923 716.451C694.382 716.443 704.421 715.552 713.031 720.093C720.116 723.87 725.398 730.322 727.702 738.014C732.89 754.916 726.388 773.299 708.283 778.719L708.404 777.854C718.081 772.345 724.614 769.748 726.903 758.465C732.47 731.011 715.982 715.627 688.999 717.962C680.792 718.673 661.814 718.284 654.015 717.801C653.161 737.741 653.542 758.031 653.698 778C653.79 789.718 652.938 804.044 653.882 815.634C656.215 816.607 666.304 815.901 669.804 815.975C670.125 804.198 669.911 792.093 669.987 780.282C676.462 780.049 683.195 779.823 689.664 779.961C695.644 788.672 700.74 798.3 706.393 807.249C708.143 810.018 709.979 813.095 711.311 816.068C717.211 815.997 723.112 815.996 729.013 816.064C726.253 811.441 707.852 781.923 707.655 779.805L707.913 779.222C715.813 790.872 723.573 805.119 731.279 817.36C724.499 817.132 717.735 817.338 710.952 817.47C704.005 805.338 696.459 793.035 689.254 781.024L670.97 781L671.046 817.314C665.794 816.796 658.33 817.065 652.947 817.156C653.403 783.906 653.008 749.8 653.001 716.483Z"/><path fill="white" transform="scale(0.5 0.5)" d="M669.985 731.867C679.614 731.324 694.233 730.166 703.439 733.176C707.183 734.401 713.184 741.358 710.847 745.541C710.854 747.815 710.89 749.668 710.662 751.946C711.29 752.218 710.954 752 711.539 752.764C711.144 755.496 710.191 758.026 708.222 760.027C706.155 762.163 703.556 763.708 700.692 764.503C696.233 765.708 676.487 765.151 670.355 765.183L670.173 763.008C669.411 754.436 669.886 740.892 669.985 731.867Z"/><path fill="#022C58" transform="scale(0.5 0.5)" d="M669.985 731.867C679.614 731.324 694.233 730.166 703.439 733.176C707.183 734.401 713.184 741.358 710.847 745.541C706.625 727.632 686.155 733.181 670.999 732.983L670.995 764.008C676.508 764.026 695.776 764.609 700.24 763.401C702.516 762.796 704.606 761.634 706.321 760.02C708.799 757.684 709.772 755.128 710.662 751.946C711.29 752.218 710.954 752 711.539 752.764C711.144 755.496 710.191 758.026 708.222 760.027C706.155 762.163 703.556 763.708 700.692 764.503C696.233 765.708 676.487 765.151 670.355 765.183L670.173 763.008C669.411 754.436 669.886 740.892 669.985 731.867Z"/><path fill="#FDBB3C" transform="scale(0.5 0.5)" d="M563.384 579.327C569.83 586.821 574.233 590.467 581.695 596.686C579.421 603.169 577.094 609.633 574.715 616.078C564.64 615.98 556.35 614.932 547.313 619.753C534.479 626.574 524.889 638.224 520.663 652.129C497.937 652.221 475.211 652.193 452.485 652.044C459.169 639.395 465.755 626.695 472.243 613.944C476.117 606.341 480.896 597.453 484.203 589.763C501.702 592.553 524.074 589.268 541.474 585.069C548.451 583.385 555.778 580.838 562.75 579.448L563.384 579.327Z"/><path fill="#00427C" transform="scale(0.5 0.5)" d="M589.859 546.319C599.949 562.993 613.901 575.207 631.048 584.406C618.05 610.734 608.073 627.572 592.453 652.036L539.316 652.041C543.508 633.532 551.968 621.098 572.709 620.943L574.715 616.078C577.094 609.633 579.421 603.169 581.695 596.686C574.233 590.467 569.83 586.821 563.384 579.327C558.129 572.787 551.74 563.069 548.6 555.258C565.016 553.455 573.922 551.996 589.859 546.319Z"/><path fill="#00427C" transform="scale(0.5 0.5)" d="M786.745 716.497L805.67 716.551C819.23 749.927 832.181 783.732 845.92 817.013C839.758 817.326 833.589 817.5 827.419 817.535C826.065 814.349 818.264 794.102 816.433 793.499C816.188 793.419 815.924 793.415 815.67 793.372C807.984 794.667 785.025 794.128 776.746 793.63L775.692 793.855C773.544 797.198 767.713 813.266 766.13 817.453C759.796 817.47 753.462 817.418 747.129 817.298C761.059 785.077 773.452 749.319 786.745 716.497Z"/><path fill="#021B38" transform="scale(0.5 0.5)" d="M786.745 716.497L805.67 716.551C819.23 749.927 832.181 783.732 845.92 817.013C839.758 817.326 833.589 817.5 827.419 817.535C826.065 814.349 818.264 794.102 816.433 793.499C816.188 793.419 815.924 793.415 815.67 793.372C816.402 792.644 815.951 792.938 817.404 792.937C819.926 794.918 826.491 812.442 828.077 816.307C833.658 815.932 838.736 815.988 844.319 816.015C839.678 805.693 806.763 720.497 804.681 718.32C800.243 717.717 792.819 717.982 788.129 718.01C786.322 719.295 778.759 740.511 777.377 744.044C768.12 768.111 758.665 792.101 749.012 816.012C754.499 815.997 759.987 816.083 765.471 816.271C768.316 808.314 771.373 800.434 774.639 792.64C776.599 792.82 778.561 792.987 780.524 793.14C779.236 793.606 778.153 793.539 776.746 793.63L775.692 793.855C773.544 797.198 767.713 813.266 766.13 817.453C759.796 817.47 753.462 817.418 747.129 817.298C761.059 785.077 773.452 749.319 786.745 716.497Z"/><path fill="white" transform="scale(0.5 0.5)" d="M796.191 738.334C797.558 739.656 809.575 771.405 811.419 776.127L798.125 776.065L782.05 776.141C786.709 763.431 791.647 751.182 796.191 738.334Z"/><path fill="#00427C" transform="scale(0.5 0.5)" d="M341.425 716.485L359.63 716.462C359.623 749.833 359.936 783.765 359.56 817.08C355.108 817.038 347.364 817.174 343.18 816.833C342.279 817.043 342.564 816.969 341.581 816.808C341.169 814.818 341.35 805.724 341.355 803.253L341.453 774.547C325.666 774.656 309.878 774.668 294.09 774.585C294.285 788.671 294.144 803.044 294.141 817.151C288.338 816.902 281.847 817.047 275.982 817.061C275.933 812.939 275.963 808.817 276.073 804.696L275.979 716.482L294.193 716.488L294.054 758.357L341.544 758.452C341.389 744.464 341.349 730.474 341.425 716.485Z"/><path fill="#021B38" transform="scale(0.5 0.5)" d="M341.425 716.485L359.63 716.462C359.623 749.833 359.936 783.765 359.56 817.08C355.108 817.038 347.364 817.174 343.18 816.833C345.951 815.876 355.072 815.993 358.236 816.003C358.249 784.136 358.945 749.571 358.082 717.924L342.924 717.879C342.385 725.247 343.647 755.071 341.828 759.117C337.782 760.726 299.792 760.09 293.448 759.677C293.003 746.033 293.406 731.696 293.129 717.901C287.773 718.009 282.415 718.044 277.057 718.006C275.665 738.272 276.785 759.689 276.444 780.057C276.323 787.257 276.751 797.744 276.073 804.696L275.979 716.482L294.193 716.488L294.054 758.357L341.544 758.452C341.389 744.464 341.349 730.474 341.425 716.485Z"/><path fill="#00427C" transform="scale(0.5 0.5)" d="M561.975 716.48L629.852 716.457C629.499 721.47 629.677 727.82 629.685 732.934L579.818 732.982C580.268 740.59 579.999 749.83 580.017 757.574C593.418 757.74 607.652 758.061 621.027 757.821L621.037 773.556L580.016 773.488C580.025 780.72 580.434 794.251 579.784 801.024C594.149 801.001 609.43 800.721 623.722 801.084L630.296 801.019C630.176 806.478 630.18 811.94 630.307 817.399C621.967 817.072 612.461 817.301 604.035 817.288L561.958 817.281C562.116 792.383 561.512 766.448 562.077 741.664C561.712 734.022 561.98 724.281 561.975 716.48Z"/><path fill="#022C58" transform="scale(0.5 0.5)" d="M562.077 741.664L562.687 742.483C563.809 752.213 562.053 813.734 563.881 815.996C569.23 816.622 581.192 816.299 586.987 816.292L629.186 816.255C629 811.754 629.983 805.389 628.06 802.47C626.317 801.476 625.742 801.478 623.722 801.084L630.296 801.019C630.176 806.478 630.18 811.94 630.307 817.399C621.967 817.072 612.461 817.301 604.035 817.288L561.958 817.281C562.116 792.383 561.512 766.448 562.077 741.664Z"/><path fill="#021B38" transform="scale(0.5 0.5)" d="M579.303 758.881C579.136 755.054 578.509 735.093 579.818 732.982C580.268 740.59 579.999 749.83 580.017 757.574C593.418 757.74 607.652 758.061 621.027 757.821L621.037 773.556L580.016 773.488C580.025 780.72 580.434 794.251 579.784 801.024C578.735 797.54 578.519 776.697 579.767 773.138C581.578 772.551 615.613 772.996 620.252 773C620.074 768.283 620.192 763.535 620.257 758.812C608.314 759.413 591.39 759.188 579.303 758.881Z"/><path fill="#021B38" transform="scale(0.5 0.5)" d="M216.969 716.209C233.3 714.724 246.616 722.004 256.176 734.808C251.951 738.003 247.732 741.591 243.631 744.971C237.549 738.526 229.775 733.228 220.728 732.266C190.111 729.012 176.726 770.387 193.851 791.243C199.035 797.486 206.504 801.391 214.589 802.087C225.329 802.961 233.109 799.298 241.055 792.474L244.395 788.92C248.54 792.427 252.588 796.046 256.537 799.772C247.503 809.857 238.126 817.053 224.233 818.443C210.679 819.838 195.721 815.06 185.195 806.446C164.759 789.721 163.892 753.642 180.568 734.033C190.622 722.211 201.872 717.571 216.969 716.209Z"/><path fill="#00427C" transform="scale(0.5 0.5)" d="M215.891 717.706C219.76 717.284 224.904 717.553 228.728 718.252C239.148 720.115 248.418 726.003 254.533 734.644C251.045 737.103 247.019 740.596 243.666 743.352C232.316 731.353 216.668 726.764 201.901 735.485C180.494 748.129 178.858 786.382 201.158 799.036C213.342 805.95 225.921 804.747 237.32 797.017C240.448 794.615 241.875 793.464 244.611 790.661C247.913 793.194 251.478 796.869 254.973 799.749C246.588 808.679 238.011 815.595 225.357 816.944C211.646 818.464 197.395 814.451 186.471 805.894C166.63 790.352 165.298 755.47 180.394 736.32C189.778 724.417 200.983 719.21 215.891 717.706Z"/><path fill="#00427C" transform="scale(0.5 0.5)" d="M385.976 716.453L404.05 716.445L404.046 817.231C398.158 816.852 391.903 817.026 385.979 817.071L385.976 716.453Z"/></svg>